<svg width="24" height="24" viewBox="0 0 24 24" fill="none" xmlns="http://www.w3.org/2000/svg">
<path d="M5.14288 5H22.2857L20.5715 15.2857H6.85717L5.14288 5Z" fill="#7203FF" fill-opacity="0.5" stroke="#7203FF" stroke-width="1.5" stroke-linecap="round" stroke-linejoin="round"/>
<path d="M8.57145 20.9999C9.20263 20.9999 9.7143 20.4883 9.7143 19.8571C9.7143 19.2259 9.20263 18.7142 8.57145 18.7142C7.94026 18.7142 7.42859 19.2259 7.42859 19.8571C7.42859 20.4883 7.94026 20.9999 8.57145 20.9999Z" fill="#7203FF" fill-opacity="0.5" stroke="#7203FF" stroke-width="1.5" stroke-linecap="round" stroke-linejoin="round"/>
<path d="M18.8572 20.9999C19.4883 20.9999 20 20.4883 20 19.8571C20 19.2259 19.4883 18.7142 18.8572 18.7142C18.226 18.7142 17.7143 19.2259 17.7143 19.8571C17.7143 20.4883 18.226 20.9999 18.8572 20.9999Z" fill="#7203FF" fill-opacity="0.5" stroke="#7203FF" stroke-width="1.5" stroke-linecap="round" stroke-linejoin="round"/>
<path d="M5.14287 5H1.71429H5.14287Z" fill="#7203FF" fill-opacity="0.5"/>
<path d="M5.14287 5H1.71429" stroke="#7203FF" stroke-width="1.5" stroke-linecap="round" stroke-linejoin="round"/>
</svg>
